<?xml version="1.0" standalone="no"?>
<!DOCTYPE svg PUBLIC "-//W3C//DTD SVG 1.1//EN" "http://www.w3.org/Graphics/SVG/1.1/DTD/svg11.dtd" >
<svg xmlns="http://www.w3.org/2000/svg">
<metadata></metadata>
<defs>
<font id="sporting_grotesquenormal" horiz-adv-x="888" >
<font-face units-per-em="2048" ascent="1638" descent="-410" />
<missing-glyph horiz-adv-x="500" />
<glyph horiz-adv-x="0" />
<glyph horiz-adv-x="682" />
<glyph horiz-adv-x="0" />
<glyph horiz-adv-x="0" />
<glyph unicode="&#xd;" />
<glyph unicode=" " />
<glyph unicode="!" horiz-adv-x="557" d="M119 0v258h319v-258h-319zM147 1591h261l-23 -1099h-211z" />
<glyph unicode="&#x22;" d="M92 1331v260h260v-260l-94 -385h-72zM537 1331v260h260v-260l-97 -385h-69z" />
<glyph unicode="#" horiz-adv-x="1277" d="M0 553v90h299l104 383h-284v90h307l137 498h90l-135 -498h381l137 498h92l-137 -498h287v-90h-309l-105 -383h295v-90h-319l-148 -553h-92l150 553h-383l-148 -553h-92l147 553h-274zM391 643h381l105 383h-383z" />
<glyph unicode="$" horiz-adv-x="1769" d="M88 506l205 80q3 -27 19 -64t44.5 -83t76 -91t107.5 -84t146 -66t184 -32v573l-252 45q-198 38 -291.5 133.5t-93.5 258.5q0 76 42.5 151t120.5 138.5t202 104t272 44.5v459h88v-463q87 -5 166.5 -23t137.5 -42.5t107.5 -53.5t82 -57.5t55.5 -51.5t33 -37l10 -14 l-129 -141q-6 8 -18.5 21t-56.5 48.5t-93.5 64t-129.5 55.5t-165 36v-489l265 -47q221 -40 339.5 -156t118.5 -293q0 -108 -58 -197t-155 -145t-218.5 -86.5t-252.5 -30.5q-7 0 -20 1t-19 1v-430h-88v432q-129 10 -240.5 41t-188 71.5t-139 92t-100 99t-64 96t-37 79.5 t-13.5 52zM514 1165q0 -85 62 -133.5t202 -73.5l92 -16v475q-158 -5 -257 -72.5t-99 -179.5zM958 166q201 6 322 81t121 179q0 105 -92 180t-265 105l-86 14v-559z" />
<glyph unicode="%" horiz-adv-x="1923" d="M0 1163q0 78 12 145.5t44 132t81.5 110t129.5 73t184 27.5t184 -27.5t129 -73t80 -110t43 -131.5t12 -146t-12 -146t-43 -132t-80 -110.5t-129 -73t-184 -27.5t-184 27.5t-129.5 73t-81.5 110.5t-44 132.5t-12 145.5zM264 1163q0 -52 4 -91.5t16 -79t32 -65t54 -41.5 t81 -16q45 0 79 15.5t54 41.5t32.5 65t16.5 79.5t4 91.5q0 65 -7.5 113t-26.5 90.5t-57.5 65t-94.5 22.5q-47 0 -81 -15.5t-54 -41t-32 -64.5t-16 -78.5t-4 -91.5zM547 -27l729 1678h100l-725 -1678h-104zM1024 459q0 78 12 145.5t44 132t81.5 109.5t129.5 72.5t184 27.5 t184 -27.5t129 -72.5t80 -109.5t43 -131.5t12 -146t-12 -146t-43 -131.5t-80 -110t-129 -73t-184 -27.5t-184 27.5t-129.5 73t-81.5 110t-44 132t-12 145.5zM1288 459q0 -52 4 -91.5t16 -79t32 -65t54 -41.5t81 -16q45 0 79 15.5t54 41.5t32.5 65t16.5 79.5t4 91.5 q0 65 -7.5 113t-26.5 90.5t-57.5 65t-94.5 22.5q-47 0 -81 -15.5t-54 -41t-32 -64.5t-16 -78.5t-4 -91.5z" />
<glyph unicode="&#x26;" horiz-adv-x="1783" d="M59 0v195l619 616q-76 107 -158.5 206.5t-146 165.5t-116.5 116.5t-81 74.5l-29 23v194h1350v-164l-579 -624q223 -291 370 -608h467v-195h-385q85 -227 127 -457h-272q-49 245 -123 457h-1043zM352 195h672q-100 230 -242 458zM358 1397q258 -226 451 -455l455 455h-906 z" />
<glyph unicode="'" d="M313 1331v260h260v-260l-94 -385h-71z" />
<glyph unicode="(" horiz-adv-x="1048" d="M147 764q0 215 48 413t128 345.5t183.5 252t216.5 148.5l59 -61q-165 -90 -258.5 -378.5t-93.5 -719.5t89.5 -708t262.5 -388l-59 -61q-102 33 -204 136t-185 252t-135 352t-52 417z" />
<glyph unicode=")" horiz-adv-x="1048" d="M266 -332q172 111 262 388.5t90 707.5q0 431 -93.5 719.5t-258.5 378.5l60 61q113 -44 216 -148.5t182.5 -252t127 -345.5t47.5 -413q0 -172 -33.5 -338.5t-91 -300t-131 -243t-155 -179.5t-162.5 -96z" />
<glyph unicode="*" d="M145 1565v90l232 -21l-172 162l61 64l152 -183l-12 238h88l-11 -238l150 178l63 -61l-172 -158l228 19v-90l-232 16l176 -151l-63 -62l-150 170l11 -229h-88l18 227l-158 -172l-61 63l172 142z" />
<glyph unicode="+" horiz-adv-x="1456" d="M147 524v88h537v525h88v-525h537v-88h-537v-524h-88v524h-537z" />
<glyph unicode="," horiz-adv-x="733" d="M178 -270q33 0 59 4.5t55 21t48 44.5t32 79t13 121h-178v258h319v-258q0 -170 -80 -255t-198 -85z" />
<glyph unicode="-" horiz-adv-x="956" d="M29 524v88h897v-88h-897z" />
<glyph unicode="." horiz-adv-x="733" d="M207 0v258h319v-258h-319z" />
<glyph unicode="/" d="M74 -403l653 2443l86 -21l-653 -2443z" />
<glyph unicode="0" horiz-adv-x="1800" d="M147 793q0 172 51.5 321.5t146 260.5t237.5 175t317 64q175 0 318 -64t237.5 -175.5t145.5 -260.5t51 -321q0 -171 -51 -320.5t-145.5 -261t-237.5 -176t-318 -64.5q-174 0 -317 64.5t-237.5 176t-146 261t-51.5 320.5zM430 793q0 -134 26.5 -245t81.5 -198t147 -135.5 t214 -48.5t214.5 48.5t147.5 135t82 198t27 245.5q0 107 -16.5 199.5t-52.5 171.5t-90 134.5t-133.5 87t-178.5 31.5q-122 0 -214 -47.5t-147 -134t-81.5 -197t-26.5 -245.5z" />
<glyph unicode="1" horiz-adv-x="1202" d="M82 985v199q104 0 191 10.5t174 38t152.5 72.5t116.5 117.5t77 168.5h204v-1591h-252l13 1245q-43 -115 -211 -187.5t-465 -72.5z" />
<glyph unicode="2" horiz-adv-x="1703" d="M147 0v195q131 58 213.5 95.5t213.5 103.5t216 117.5t185 124.5t157.5 138.5t97.5 145.5t40 159q0 150 -100 244t-279 94q-109 0 -202 -35.5t-156.5 -95.5t-103.5 -136t-52 -161l-182 76q12 83 44 159.5t92.5 148.5t142 124.5t200.5 84.5t262 32q139 0 253.5 -39 t190 -106.5t117 -156.5t41.5 -190q0 -97 -39.5 -191.5t-101.5 -172t-153 -153.5t-179.5 -133t-196.5 -113t-188.5 -92t-169.5 -72h1046v-195h-1409z" />
<glyph unicode="3" horiz-adv-x="1677" d="M174 399l213 125q1 -7 3 -20t13 -50.5t28 -71t51.5 -75t79 -71t115 -50t154.5 -20.5q199 0 308.5 70.5t109.5 214.5q0 62 -19.5 111t-58 83.5t-90 58t-121.5 37t-145.5 19.5t-169.5 6v139h152q159 0 266.5 70t107.5 190q0 109 -78.5 180.5t-222.5 71.5 q-75 0 -137.5 -17.5t-102 -45t-70.5 -61t-46.5 -67.5t-25.5 -61.5t-12 -44.5l-3 -18l-209 53q1 10 3.5 26.5t18 64t40 91t74.5 96.5t115.5 91t169.5 64t230 26q143 0 266 -49t198 -139.5t75 -202.5q0 -77 -32.5 -141t-86.5 -106t-117.5 -68.5t-132.5 -37.5 q55 -4 114.5 -22.5t119 -54t106.5 -83.5t76 -117t29 -147q0 -152 -91.5 -261t-244 -161.5t-348.5 -52.5q-96 0 -180.5 14.5t-146.5 39.5t-114 57t-86.5 67.5t-61.5 71t-42 67.5t-25 57t-13 39z" />
<glyph unicode="4" horiz-adv-x="1693" d="M25 487v113l981 991h323l14 -907h291v-197h-291v-487h-251v487h-1067zM373 684h719l6 711z" />
<glyph unicode="5" horiz-adv-x="1755" d="M213 399l213 125q1 -7 3.5 -20t15 -50.5t31 -71t55.5 -75t84 -71t121 -50t163 -20.5q235 0 353 95t118 253q0 73 -29 138t-85 117.5t-145.5 83t-201.5 30.5q-78 0 -150.5 -13.5t-120.5 -33.5t-84.5 -39.5t-53.5 -32.5l-17 -14h-198l141 841h995v-194h-805l-104 -492 q7 7 21 18t61.5 39.5t100 50.5t135 40t167.5 18q182 0 327.5 -67.5t228.5 -189.5t83 -275q0 -255 -192 -411.5t-508 -156.5q-101 0 -190.5 14.5t-155 39.5t-121.5 57t-93.5 67.5t-67.5 71t-47.5 67.5t-28.5 57t-15 39z" />
<glyph unicode="6" horiz-adv-x="1720" d="M147 752q0 133 33.5 259.5t100.5 235.5t159 191t218 129t270 47q103 0 191 -20.5t146.5 -54t105 -73.5t73 -79.5t44 -73t22.5 -53.5l6 -21l-211 -53q-2 9 -8 25t-32.5 55.5t-62.5 70t-104.5 55.5t-153.5 25q-164 0 -286 -93t-183 -246.5t-61 -344.5q17 27 62 65.5t117 84 t181 77t225 31.5q160 0 291 -63t206 -175t75 -249q0 -168 -88.5 -290.5t-237.5 -182.5t-340 -60q-143 0 -265.5 38.5t-212.5 108.5t-153.5 166.5t-95 215t-31.5 252.5zM420 625q18 -91 54.5 -169.5t94.5 -145.5t147 -105.5t199 -38.5q175 0 275 87t100 212q0 150 -103 245 t-267 95q-156 0 -304 -64t-196 -116z" />
<glyph unicode="7" horiz-adv-x="1468" d="M29 1397v194h1439v-164q-17 -12 -45.5 -34t-115 -97.5t-168.5 -158t-189.5 -212t-195.5 -264t-169 -309.5t-126 -352h-273q39 143 99.5 282.5t129.5 254t146.5 222t154 192t149.5 157.5t135.5 125.5t110 90t74.5 55.5l27 18h-1183z" />
<glyph unicode="8" horiz-adv-x="1656" d="M88 438q0 56 20 105t50.5 83.5t75.5 64t85 47t89.5 32.5t79.5 21t64 12l34 6q-15 1 -40 5t-70 16t-88.5 29t-90.5 46t-82.5 65t-58.5 90t-23 116q0 122 99.5 224t258.5 158t338 56q178 0 337 -56t258.5 -158t99.5 -224q0 -58 -28.5 -109.5t-73.5 -86t-95 -62t-100 -43.5 t-80.5 -24t-44.5 -9q25 -6 39.5 -10t69 -23t93 -38t92.5 -54t88.5 -72.5t59.5 -92t25 -114.5q0 -108 -61 -197.5t-164 -147.5t-236 -90t-279 -32q-147 0 -280 32t-236 90t-164 147.5t-61 197.5zM371 438q0 -83 63 -146t166 -94.5t229 -31.5t229 31.5t166.5 94.5t63.5 146 q0 67 -32.5 121t-84.5 89t-120.5 58.5t-137 33.5t-137.5 10q-29 0 -74.5 -8.5t-104 -32t-108 -57t-84 -90t-34.5 -124.5zM414 1176q0 -55 25 -100t62.5 -73t89.5 -49t97 -31t95 -16t73.5 -7t42.5 -1q27 0 66.5 8.5t89 30t91 52t69.5 79.5t28 107q0 102 -108.5 171.5 t-305.5 69.5t-306 -70t-109 -171z" />
<glyph unicode="9" horiz-adv-x="1720" d="M147 1079q0 118 54 219t146 169.5t215.5 107.5t260.5 39q172 0 315 -64.5t236.5 -173t145 -249.5t51.5 -296q0 -135 -28.5 -260t-89.5 -234.5t-149 -190.5t-214.5 -128t-278.5 -47q-118 0 -218 26t-165 67.5t-115.5 92t-78 100.5t-45 91.5t-22.5 67.5l-5 26l203 84 q1 -8 4 -20.5t15.5 -50t30 -71.5t51.5 -75.5t75.5 -71.5t105 -50.5t137.5 -20.5q115 0 217.5 52.5t174 142.5t107.5 218t22 271q-30 -43 -82 -85.5t-124.5 -82.5t-171 -65t-202.5 -25q-125 0 -229 30.5t-182.5 89.5t-122.5 153t-44 214zM430 1079q0 -141 103.5 -221 t252.5 -80q137 0 294.5 65t217.5 152q-39 187 -164.5 304.5t-320.5 117.5q-169 0 -276 -98t-107 -240z" />
<glyph unicode=":" horiz-adv-x="733" d="M207 0v258h319v-258h-319zM207 879v258h319v-258h-319z" />
<glyph unicode=";" horiz-adv-x="733" d="M178 -270q33 0 59 4.5t55 21t48 44.5t32 79t13 121h-178v258h319v-258q0 -170 -80 -255t-198 -85zM207 879v258h319v-258h-319z" />
<glyph unicode="&#x3c;" d="M104 567l648 502v-98l-525 -404l516 -389v-100z" />
<glyph unicode="=" horiz-adv-x="1456" d="M147 317v89h1162v-89h-1162zM147 731v88h1162v-88h-1162z" />
<glyph unicode="&#x3e;" d="M104 971v98l648 -502l-639 -489v100l514 389z" />
<glyph unicode="?" horiz-adv-x="1703" d="M170 1040q1 7 4 20t15.5 52t29.5 77t49.5 90t71.5 96t98 89.5t128 77.5t163 52t201 20q156 0 277 -41t191 -108t105 -144.5t35 -159.5q0 -101 -33 -176t-86 -118.5t-117 -76.5t-128 -58.5t-117 -54.5t-86 -75t-33 -110h-254q0 91 32.5 154.5t84 96.5t114 56.5t125 45 t114 51.5t84 86.5t32.5 139.5q0 122 -98.5 208.5t-262.5 86.5q-94 0 -174 -23.5t-133.5 -61.5t-96 -83.5t-66.5 -91t-39.5 -83.5t-21.5 -62l-5 -23zM651 0v258h320v-258h-320z" />
<glyph unicode="@" horiz-adv-x="2492" d="M147 524q0 114 34.5 224.5t98.5 210t161 184.5t216.5 146.5t270.5 96.5t317 35q250 0 458.5 -68.5t348 -186t216.5 -276t77 -337.5q0 -119 -31.5 -212.5t-82.5 -151t-121 -95.5t-140 -52.5t-147 -14.5q-158 0 -251.5 77t-88.5 170q-2 -5 -6.5 -14t-22 -34.5t-38.5 -49 t-57.5 -52t-78.5 -49t-101.5 -34.5t-125.5 -14q-126 0 -233.5 56.5t-171.5 159.5t-64 230q0 131 53.5 242t143 185.5t207.5 116.5t247 42q76 0 142 -21t106 -50.5t69 -59.5t40 -51l12 -21l151 156h121l-186 -684q-57 -197 139 -197q54 0 101.5 8t102.5 35t93 71t64 123 t26 185q0 165 -64 307t-184.5 248t-306.5 166.5t-416 60.5q-175 0 -330 -44.5t-270.5 -122t-200 -180t-127.5 -221.5t-43 -243q0 -170 49.5 -301.5t155.5 -233.5t281 -164.5t418 -84.5l-35 -94q-248 21 -438 92.5t-312 186t-184 265.5t-62 334zM856 504q0 -138 95.5 -210.5 t240.5 -72.5q216 0 252 137l110 414q-1 4 -4.5 10t-21 21.5t-42.5 27.5t-73.5 21.5t-109.5 9.5q-191 0 -319 -99.5t-128 -258.5z" />
<glyph unicode="A" horiz-adv-x="1912" d="M0 0l737 1591h439l737 -1591h-262l-236 524v-6h-923l-228 -518h-264zM571 713h764l-313 690q-32 -6 -65.5 -6t-67.5 6z" />
<glyph unicode="B" horiz-adv-x="1980" d="M207 0v1591h964q175 0 315 -42.5t228 -134.5t88 -222q0 -63 -27 -118t-69 -92.5t-92.5 -65.5t-97 -41.5t-84.5 -16.5q43 -4 92.5 -17.5t111.5 -45t110.5 -76t82 -117.5t33.5 -162q0 -96 -38 -173t-100.5 -126t-147 -81.5t-172 -46t-181.5 -13.5h-1016zM467 195h655 q100 0 166.5 4.5t131 18.5t101.5 40t59 69.5t22 106.5q0 74 -22 125.5t-59.5 82.5t-102 48.5t-133 23t-169.5 5.5h-649v-524zM471 915h641q91 0 165.5 12t135.5 38t95 71t34 107q0 55 -16 97.5t-48 69.5t-70 45t-94 27t-107.5 12t-121.5 3h-614v-482z" />
<glyph unicode="C" horiz-adv-x="1914" d="M88 793q0 237 112 424t313.5 292t457.5 105q147 0 275.5 -40.5t217.5 -107t153.5 -150.5t95 -172t30.5 -171l-209 -53q0 91 -36 177.5t-103.5 159t-177.5 116.5t-246 44q-281 0 -442.5 -170.5t-161.5 -453.5t161.5 -455t442.5 -172q112 0 204.5 24.5t150.5 64t101.5 87 t65 95t34 87t15.5 64.5l2 24h250q0 -8 -1.5 -22.5t-10 -58t-22.5 -86t-44 -100.5t-70 -107.5t-103.5 -100t-141.5 -86t-188.5 -58t-239.5 -22.5q-202 0 -369 61t-280 170t-174.5 260.5t-61.5 330.5z" />
<glyph unicode="D" horiz-adv-x="1929" d="M207 0v1591h817q121 0 234 -23t212 -72.5t173 -119.5t116.5 -170.5t42.5 -220.5q8 -61 8 -152t-8 -212q0 -122 -43 -225t-116.5 -175t-172.5 -122.5t-211.5 -74.5t-232.5 -24h-819zM467 195h469q160 0 273.5 29.5t182.5 88.5t104 138t46 188q4 49 4 143t-4 150 q-34 465 -604 465h-471v-1202z" />
<glyph unicode="E" horiz-adv-x="1736" d="M207 0v1591h1323v-194h-1063v-508h944v-197h-944v-497h1122v-195h-1382z" />
<glyph unicode="F" horiz-adv-x="1529" d="M207 0v1591h1323v-194h-1063v-508h944v-197h-944v-692h-260z" />
<glyph unicode="G" horiz-adv-x="2050" d="M88 793q0 237 112.5 424t316 292t462.5 105q152 0 282 -44t216.5 -113t148.5 -155.5t89.5 -170.5t27.5 -158l-209 -53q0 59 -17 122t-59 131t-103.5 121.5t-161 88t-220.5 34.5q-282 0 -444 -170.5t-162 -453.5q0 -281 162 -454t429 -173q115 0 210 24.5t154 63.5 t103.5 86.5t66 95t34.5 86.5t16 64l2 24v23h-526v196h825v-829h-227l2 524q-11 -88 -42 -167t-86.5 -150.5t-130.5 -123t-181 -82t-232 -30.5q-179 0 -336 57.5t-272.5 162t-182.5 260.5t-67 342z" />
<glyph unicode="H" horiz-adv-x="2152" d="M207 0v1591h260v-729h1216v729h261v-1591h-261v664h-1216v-664h-260z" />
<glyph unicode="I" horiz-adv-x="673" d="M207 0v1591h260v-1591h-260z" />
<glyph unicode="J" horiz-adv-x="1568" d="M131 612h256q0 -52 2 -91t10.5 -88t23 -84.5t40.5 -72t62.5 -59t91 -37t122.5 -14.5q203 0 283 106.5t80 339.5v979h260v-979q0 -333 -146.5 -487t-476.5 -154q-327 1 -467.5 152.5t-140.5 488.5z" />
<glyph unicode="K" horiz-adv-x="1832" d="M207 0v1591h264v-827l911 827h320l-778 -706l878 -885h-319l-729 743l-287 -245v-498h-260z" />
<glyph unicode="L" horiz-adv-x="1501" d="M207 0v1591h260v-1396h1003v-195h-1263z" />
<glyph unicode="M" horiz-adv-x="2361" d="M207 0v1591h264l635 -1403q29 5 65.5 5t58.5 -3l21 -2l639 1403h264v-1591h-260l19 1051l10 118l-37 -118l-489 -1051h-441l-479 1051l-43 114l19 -114l14 -1051h-260z" />
<glyph unicode="N" horiz-adv-x="2013" d="M207 0v1591h264l1073 -1411v1411h262v-1591h-424l-925 1231l10 -1231h-260z" />
<glyph unicode="O" horiz-adv-x="2095" d="M119 793q0 178 66.5 330t186 260.5t294 169.5t383.5 61t383 -61t293 -169.5t185 -260.5t66 -330t-66 -330t-185 -260.5t-293.5 -170t-382.5 -61.5q-209 0 -383.5 61.5t-294 170t-186 260.5t-66.5 330zM399 793q0 -141 42 -255.5t122 -197.5t204 -128.5t282 -45.5 q310 0 478.5 170.5t168.5 456.5q0 188 -72 327.5t-219 218t-356 78.5q-314 0 -482 -168.5t-168 -455.5z" />
<glyph unicode="P" horiz-adv-x="1861" d="M207 0v1591h964q105 0 196.5 -15t172.5 -49t138 -85.5t90.5 -129t33.5 -175.5q0 -145 -86 -247t-226.5 -150t-320.5 -48h-702v-692h-260zM471 889h612q83 0 145.5 5t124 21t101 42.5t64 72t24.5 107.5q0 48 -12.5 87t-34 66t-55 46.5t-70 31t-86 18.5t-95 9t-104.5 2 h-614v-508z" />
<glyph unicode="Q" horiz-adv-x="2095" d="M119 793q0 178 66.5 330t186 260.5t294 169.5t383.5 61t383 -61t293 -169.5t185 -260.5t66 -330q0 -313 -194 -531.5t-527 -273.5q-8 -11 -8 -54q0 -69 45 -107t135 -38q65 0 127 12.5t92 25.5l29 13v-200q-10 -6 -30.5 -14.5t-90 -23t-147.5 -14.5q-80 0 -140.5 23 t-94 61.5t-50 82.5t-16.5 91q0 36 7 68.5t15 46.5l7 14q-31 -4 -86 -4q-209 0 -383.5 61.5t-294 170t-186 260.5t-66.5 330zM399 793q0 -141 42 -255.5t122 -197.5t204 -128.5t282 -45.5q310 0 478.5 170.5t168.5 456.5q0 188 -72 327.5t-219 218t-356 78.5 q-314 0 -482 -168.5t-168 -455.5z" />
<glyph unicode="R" horiz-adv-x="1921" d="M207 0v1591h995q143 0 250.5 -23.5t187.5 -75.5t121 -139.5t41 -209.5q0 -99 -30 -174.5t-80.5 -124.5t-127.5 -81.5t-159.5 -48.5t-187.5 -22q57 0 117.5 -45t121 -126t113 -163t119.5 -188t114 -170h-301q-26 38 -79 134t-104.5 183.5t-114 177t-130 143.5t-129.5 54 h-477v-692h-260zM471 889h612q253 0 356 54t103 202q0 62 -18.5 106t-52.5 72.5t-92 44.5t-127 22.5t-167 6.5h-614v-508z" />
<glyph unicode="S" horiz-adv-x="1705" d="M88 453l207 94q3 -8 9.5 -21.5t31 -53.5t55 -76t84.5 -79.5t115.5 -75.5t151.5 -53.5t190 -21.5q199 0 306.5 72.5t107.5 187.5q0 104 -94.5 176.5t-270.5 108.5l-426 88q-177 36 -272 130.5t-95 241.5q0 91 43.5 170.5t125 140.5t208 96.5t281.5 35.5q97 0 185.5 -15 t152 -39t118.5 -53t90 -57.5t60 -52.5t36 -39l11 -15l-141 -153q-7 9 -20 24.5t-60.5 54.5t-103 69t-147 54.5t-191.5 24.5q-165 0 -273 -62.5t-108 -168.5q0 -88 68.5 -144t189.5 -79l442 -91q237 -46 350 -159.5t113 -282.5q0 -108 -58 -197t-155 -145t-218.5 -86.5 t-252.5 -30.5q-111 0 -211 16.5t-175 44.5t-140.5 64t-111.5 76t-83 80t-59.5 76t-38 64t-21.5 44z" />
<glyph unicode="T" horiz-adv-x="1853" d="M59 1397v194h1735v-194h-737v-1397h-260v1397h-738z" />
<glyph unicode="U" horiz-adv-x="2000" d="M207 657v934h260v-934q0 -181 48.5 -285.5t164.5 -155t319 -50.5q202 0 318.5 50.5t166.5 155.5t50 285v934h260v-934q0 -141 -24.5 -248t-81 -191.5t-148.5 -137.5t-226.5 -81t-314.5 -28q-224 0 -377.5 41.5t-244.5 130t-130.5 212.5t-39.5 302z" />
<glyph unicode="V" horiz-adv-x="1912" d="M0 1591h285l600 -1403q29 5 64 5t55 -3l20 -2l604 1403h285l-737 -1591h-439z" />
<glyph unicode="W" horiz-adv-x="2660" d="M0 1591h258l506 -1396h2l412 1374h305l407 -1374h4l508 1396h258l-587 -1591h-351l-393 1282l-391 -1282h-348z" />
<glyph unicode="X" horiz-adv-x="1740" d="M0 0l725 819l-692 772h321l523 -628l507 628h324l-678 -786l711 -805h-297l-567 664l-580 -664h-297z" />
<glyph unicode="Y" horiz-adv-x="1794" d="M29 1591h311l557 -751l557 751h309l-737 -911v-680h-260v680z" />
<glyph unicode="Z" horiz-adv-x="1497" d="M29 0v195l1116 1202h-1026v194h1349v-164l-1144 -1232h1144v-195h-1439z" />
<glyph unicode="[" horiz-adv-x="727" d="M178 -381v2302h492v-88h-404v-2126h404v-88h-492z" />
<glyph unicode="\" d="M74 2019l86 21l653 -2443l-86 -21z" />
<glyph unicode="]" horiz-adv-x="727" d="M59 -293h402v2126h-402v88h492v-2302h-492v88z" />
<glyph unicode="_" horiz-adv-x="2732" d="M326 -188h2080v-91h-2080v91z" />
<glyph unicode="`" horiz-adv-x="2465" d="M899 1389l62 225l612 -236l-33 -108z" />
<glyph unicode="a" horiz-adv-x="1452" d="M143 221q0 62 19.5 123.5t72.5 130t135 124.5t219 101.5t312 65.5l-4 59q-2 64 -61.5 112t-178.5 48q-69 0 -129.5 -18.5t-97 -45t-64 -53t-38.5 -44.5l-11 -19l-167 113q3 6 8 15.5t25.5 37t45 52.5t67 56t90.5 53t117 37t146 15q124 0 219 -31t152.5 -86t85.5 -125 q27 -65 27 -140v-11l-13 -519v-12q0 -46 20 -68q24 -26 81 -26q36 0 73 22t56 44l18 22l53 -160q-2 -5 -7 -13.5t-23.5 -29.5t-41.5 -37t-64 -29.5t-89 -13.5q-67 0 -124 21.5t-98 74t-44 128.5l-8 243q-3 -10 -9 -26.5t-28.5 -65t-49 -93t-72 -98t-96 -92.5t-121.5 -65.5 t-149 -26.5q-122 0 -188 70t-66 180zM383 285q0 -58 28.5 -88.5t80.5 -30.5q69 0 148.5 53t138 124t97.5 140t37 103l-6 110q-131 -33 -229.5 -78t-153 -88t-88 -91t-43.5 -83.5t-10 -70.5z" />
<glyph unicode="b" horiz-adv-x="1527" d="M207 0v1569q53 0 114.5 5.5t96.5 11.5l35 5v-657q5 10 15 27t47.5 60t83.5 76t124.5 60t167.5 27q154 0 277.5 -78.5t192.5 -217t69 -310.5t-69 -310.5t-193.5 -217.5t-280.5 -79q-94 0 -177.5 29.5t-135.5 71t-90.5 83.5t-55.5 71l-16 30l-86 -256h-119zM432 578 q0 -192 94 -309t273 -117t273.5 117t94.5 309q0 191 -94.5 304t-273.5 113t-273 -113t-94 -304z" />
<glyph unicode="c" horiz-adv-x="1443" d="M119 573q0 98 25.5 188t78.5 167t128 134t179.5 89.5t227.5 32.5q115 0 212 -34.5t159.5 -90t104.5 -125.5q42 -68 56 -140q9 -44 9 -86q0 -26 -3 -51l-211 -45q5 33 5 64q0 65 -22 123q-33 86 -114 139t-196 53q-174 0 -276.5 -116.5t-102.5 -294.5q0 -201 98 -313.5 t281 -112.5q68 0 123 16t88.5 41t58.5 55.5t36 61t18 55.5t8 41v16h233q0 -10 -1 -27t-12 -65.5t-30.5 -93t-62 -98.5t-100.5 -93t-152 -65.5t-211 -26.5q-138 0 -254 40.5t-201 116t-132.5 189.5t-47.5 256z" />
<glyph unicode="d" horiz-adv-x="1497" d="M68 578q0 172 69 310.5t193 217t278 78.5q65 0 124.5 -14t102 -36t79 -48.5t60 -53t40 -48.5t23.5 -36l7 -14v635h11q125 0 235 22v-1591h-119l-86 256q-6 -12 -17 -31t-53.5 -68t-92 -86.5t-134 -68.5t-178.5 -31q-156 0 -280 79t-193 217.5t-69 310.5zM330 578 q0 -192 94.5 -309t273.5 -117t273 117t94 309q0 191 -94 304t-273 113t-273.5 -113t-94.5 -304z" />
<glyph unicode="e" horiz-adv-x="1443" d="M119 557q0 151 52.5 272.5t141.5 197.5t201 116.5t236 40.5q133 0 241.5 -44t175.5 -116.5t102.5 -161t35.5 -182.5q0 -31 -2.5 -66t-4.5 -54l-2 -19l-929 18q0 -24 2.5 -50.5t12.5 -67.5t25.5 -78t45.5 -76t69 -67t99 -46t133 -18q83 0 147 23.5t96 57t52.5 67.5 t24.5 58l5 23h238q-1 -9 -3.5 -23.5t-17 -57.5t-36 -82.5t-65.5 -87t-100.5 -82t-146 -58t-196.5 -23.5q-151 0 -274 49t-200 132t-118 187t-41 218zM373 659l719 21q0 6 -0.5 17.5t-7.5 43.5t-18.5 61.5t-37 65.5t-59.5 62t-90 43.5t-125 17.5q-85 0 -154.5 -29.5 t-109 -70.5t-67.5 -91t-38 -84t-12 -57z" />
<glyph unicode="f" horiz-adv-x="937" d="M82 983v154h246q-3 1 -11.5 7.5t-22 21t-25.5 34t-20.5 49t-8.5 62.5q0 86 58 156.5t149 108.5t192 38q76 0 141 -14.5t108.5 -38t78.5 -52t55 -57t33 -52t17 -38.5l5 -14l-168 -113q-2 7 -7 19.5t-24.5 44t-45 55.5t-72 43.5t-101.5 19.5q-93 0 -148.5 -44t-55.5 -124 q0 -36 12.5 -64t24.5 -38l12 -10h387v-154h-354v-983h-246v983h-209z" />
<glyph unicode="g" horiz-adv-x="1495" d="M88 -227q0 93 97.5 159t258.5 76v12q-125 5 -214 59.5t-89 141.5q0 54 34 94.5t85 60.5t96 29t82 9v6q-12 2 -31.5 8t-70 31.5t-89.5 61t-70.5 102t-31.5 149.5q0 79 33.5 150t101 131t184 95.5t267.5 35.5q82 0 155 -13t106 -25l32 -13q2 8 6.5 22.5t24.5 50t45.5 63 t73 50t104.5 22.5q31 0 63 -4t48 -8l16 -4v-197q-55 15 -129 15q-56 0 -102.5 -9.5t-65.5 -19.5l-18 -10q96 -43 161.5 -136t65.5 -198q0 -187 -156 -292t-424 -105q-54 0 -103 5t-71 10l-22 5q-61 0 -109.5 -32t-48.5 -87q0 -108 184 -108h451q104 0 187 -27t130 -70 t71 -90.5t24 -93.5v-37q0 -50 -23 -96.5t-72.5 -88t-121 -72.5t-175 -49.5t-227.5 -18.5h-266q-109 0 -192.5 16t-132.5 41t-80 59.5t-41.5 66.5t-10.5 67zM352 -201q0 -80 87 -115.5t286 -35.5q234 0 339 35.5t105 121.5q0 80 -48.5 123t-162.5 49q-54 3 -117 6t-95.5 4.5 t-67 4t-54.5 5t-34 5.5q-10 -2 -26 -7t-57 -22.5t-72.5 -38.5t-57 -57.5t-25.5 -77.5zM408 776q0 -49 17.5 -93t54 -81.5t101 -59.5t150.5 -22t150.5 22t100.5 59.5t53.5 81.5t17.5 93q0 51 -17.5 95t-54 81t-100.5 58.5t-150 21.5t-150.5 -21.5t-101 -58.5t-54 -81 t-17.5 -95z" />
<glyph unicode="h" horiz-adv-x="1581" d="M207 0v1569q64 0 125.5 5.5t91.5 11.5l29 5v-735q18 41 42 79.5t66.5 85.5t92.5 81.5t122.5 58t153.5 23.5q222 0 333 -128t111 -351v-705h-246v700q0 139 -79.5 212t-217.5 73q-77 0 -143 -25t-107 -61.5t-70.5 -78.5t-41.5 -75.5t-12 -54.5v-690h-250z" />
<glyph unicode="i" horiz-adv-x="659" d="M207 0v1137h246v-1137h-246zM207 1395v196h246v-196h-246z" />
<glyph unicode="j" horiz-adv-x="757" d="M41 -254q65 -25 113 -25q59 0 92 39q59 71 59 254v1123h246v-1137q0 -95 -20.5 -175t-56.5 -135.5t-85 -94t-105 -55.5q-52 -16 -108 -16h-10q-60 2 -121 23zM305 1395v196h246v-196h-246z" />
<glyph unicode="k" horiz-adv-x="1388" d="M207 0v1569q64 0 125.5 5.5t91.5 11.5l29 5v-946l520 492h278l-508 -480l660 -657h-297l-522 514l-131 -111v-403h-246z" />
<glyph unicode="l" horiz-adv-x="659" d="M207 0v1569q64 0 125.5 5.5t91.5 11.5l29 5v-1591h-246z" />
<glyph unicode="m" horiz-adv-x="2381" d="M209 0v1137h119l104 -338q9 30 25 67t54.5 97t87 106t126.5 80.5t168 34.5q174 0 276.5 -107t120.5 -280q13 41 30 80.5t55 98.5t83.5 102t117.5 74.5t155 31.5q95 0 174.5 -29.5t140.5 -87t94 -150.5q31 -88 31 -198v-14v-705h-246v727q0 125 -78.5 191.5t-187.5 66.5 q-77 0 -140.5 -28t-100 -67t-62 -83.5t-34.5 -73.5t-9 -41v-692h-246v700q0 137 -68.5 211t-193.5 74q-66 0 -123 -21.5t-95 -53.5t-67 -73t-44 -77.5t-21 -69.5v-690h-246z" />
<glyph unicode="n" horiz-adv-x="1581" d="M209 0v1137h117l104 -338q10 35 29.5 76t61 98.5t94.5 102t135.5 76.5t177.5 32q222 0 333 -128t111 -351v-705h-246v700q0 139 -79.5 212t-217.5 73q-77 0 -143 -26t-107 -63.5t-70.5 -80.5t-41.5 -75.5t-12 -49.5v-690h-246z" />
<glyph unicode="o" horiz-adv-x="1536" d="M123 578q0 128 39 236t115.5 191.5t202 131t288.5 47.5t288.5 -47.5t202 -131t115.5 -191.5t39 -236q0 -129 -39 -237t-115.5 -192t-202 -131t-288.5 -47t-288.5 47t-202 131t-115.5 192t-39 237zM385 578q0 -95 21 -170.5t65.5 -134t119.5 -90t177 -31.5 q196 0 289.5 115t93.5 311q0 195 -93 306t-290 111q-200 0 -291.5 -110.5t-91.5 -306.5z" />
<glyph unicode="p" horiz-adv-x="1556" d="M207 -457v1594h119l98 -271q2 7 6.5 18.5t22 44.5t39.5 63t61 66.5t84.5 63t112 44.5t141.5 18q154 0 277.5 -78.5t192.5 -217t69 -310.5t-69 -310.5t-193.5 -217.5t-280.5 -79q-82 0 -157 22.5t-123 54.5t-84.5 64.5t-52.5 55.5l-17 22v-647h-246zM432 578 q0 -192 94 -309t273 -117t273.5 117t94.5 309q0 191 -94.5 304t-273.5 113t-273 -113t-94 -304z" />
<glyph unicode="q" horiz-adv-x="1556" d="M127 578q0 172 69 310.5t192.5 217t277.5 78.5q75 0 141 -17.5t112 -45.5t84.5 -62t61.5 -68t39 -62t22 -45l7 -18l98 271h119v-1594h-246v647q-6 -9 -17 -23.5t-51.5 -52.5t-86.5 -67t-121.5 -52.5t-157.5 -23.5q-156 0 -280.5 79t-193.5 217.5t-69 310.5zM389 578 q0 -192 95 -309t274 -117q178 0 272 117t94 309q0 191 -93.5 304t-272.5 113t-274 -113.5t-95 -303.5z" />
<glyph unicode="r" horiz-adv-x="1097" d="M207 0v1137h119l104 -338q7 37 16.5 70.5t27 81.5t44.5 86t62.5 73t87.5 54.5t114 19.5q76 0 130 -26t79 -68t38 -92q11 -42 11 -84v-16q-2 -50 -8 -91.5t-13 -67.5l-7 -26l-226 -47q3 7 7 18.5t13 44.5q10 33 14 63q3 22 3 49q-1 9 -1 18q-2 37 -12.5 63.5t-39 44.5 t-72.5 18q-50 0 -93.5 -26t-70 -64.5t-46 -83t-27.5 -80t-8 -57.5v-674h-246z" />
<glyph unicode="s" horiz-adv-x="1325" d="M88 338l186 88q111 -260 476 -260q129 0 202.5 38.5t73.5 108.5q0 73 -63.5 118t-198.5 73l-250 49q-156 31 -245 110t-89 189q0 139 133 235.5t330 96.5q82 0 154.5 -14.5t123.5 -38t93 -52t68 -57t44.5 -52t25.5 -38.5l7 -14l-168 -113q-4 7 -12.5 19.5t-39.5 43.5 t-67.5 54.5t-98 43t-130.5 19.5q-117 0 -176 -41t-59 -100q0 -52 51 -88t178 -64l278 -59q349 -72 349 -305q0 -72 -32.5 -132t-85.5 -101t-122.5 -69.5t-141.5 -41.5t-143 -13q-114 0 -213 23t-169 59.5t-126 86t-89.5 98.5t-53.5 100z" />
<glyph unicode="t" horiz-adv-x="1069" d="M61 985v152h271l104 280h119v-280h408v-152h-406v-573q0 -136 38 -191t136 -55q49 0 96 15t69 29l22 15l71 -164q-5 -4 -15 -10t-42 -21.5t-66 -27.5t-84.5 -21.5t-99.5 -9.5q-367 0 -367 414v600h-254z" />
<glyph unicode="u" horiz-adv-x="1576" d="M207 385v752h246v-713q0 -125 73.5 -191.5t180.5 -66.5q102 0 186 31.5t132 78.5t73.5 95.5t25.5 89.5v676h246v-1137h-119l-102 340q-24 -50 -47 -89t-67.5 -95t-93 -93.5t-122 -64.5t-155.5 -27q-202 0 -329.5 108t-127.5 306z" />
<glyph unicode="v" horiz-adv-x="1384" d="M29 1137h282l381 -959l385 959h279l-531 -1137h-268z" />
<glyph unicode="w" horiz-adv-x="2168" d="M70 1137h245l324 -942l297 942h297l299 -942l321 942h246l-438 -1137h-270l-306 952l-307 -952h-268z" />
<glyph unicode="x" horiz-adv-x="1374" d="M29 0l516 565l-516 572h305l352 -420l352 420h305l-518 -572l518 -565h-313l-344 418l-342 -418h-315z" />
<glyph unicode="y" horiz-adv-x="1341" d="M-12 1137h266l412 -818l411 818h264q-395 -747 -628 -1137q-44 -73 -74.5 -122t-67.5 -103.5t-66.5 -89.5t-64.5 -68.5t-67.5 -52t-70 -30t-77.5 -11.5q-58 0 -105.5 11.5t-65.5 22.5l-19 11v190q3 -7 20.5 -18t56.5 -22t83 -11q74 0 143.5 72t155.5 219l81 141h-30z" />
<glyph unicode="z" horiz-adv-x="1204" d="M59 0v147l740 791h-680v199h1026v-88l-791 -854h791v-195h-1086z" />
<glyph unicode="{" horiz-adv-x="845" d="M59 711v135q7 2 19 6.5t43 22t54.5 39t43 60t19.5 83.5v672q0 103 56 164t167 61q61 0 127.5 -25t102.5 -49l36 -25l-57 -114q-58 43 -113 43q-106 0 -106 -113v-627q0 -56 -23 -104t-50.5 -74.5t-68 -49t-56 -28t-32.5 -10.5q8 -1 28.5 -8t57 -27.5t67.5 -48.5t54 -76 t23 -106v-633q0 -64 20 -88t74 -24q29 0 60.5 11t48.5 22l16 12l57 -117q-5 -4 -14.5 -10t-39.5 -22.5t-59.5 -29t-72 -22.5t-80.5 -10q-111 0 -167 60t-56 161v678q0 45 -18.5 83t-45 60.5t-52.5 39t-44 22.5z" />
<glyph unicode="|" d="M399 -457v2530h88v-2530h-88z" />
<glyph unicode="}" horiz-adv-x="845" d="M119 -305l59 117q60 -45 123 -45q54 0 75 24t21 88v633q0 56 22.5 103.5t49.5 74.5t65.5 49t55 28t31.5 11l-9 4q-10 3 -22.5 8t-30 13t-35 20t-36.5 27t-35 35t-28.5 43t-20 53t-7.5 63v627q0 113 -106 113q-25 0 -53.5 -11t-43.5 -21l-16 -11l-59 114q14 11 39.5 27.5 t95.5 44t131 27.5q111 0 168 -61t57 -164v-672q0 -45 18 -83t44 -60.5t52 -39t44 -22.5l18 -6v-135q-7 -2 -19 -6.5t-42.5 -22t-53.5 -39t-42 -60t-19 -83.5v-678q0 -101 -57 -161t-168 -60q-61 0 -127.5 23.5t-102.5 47.5z" />
<glyph unicode="&#xa0;" />
<glyph unicode="&#xa1;" horiz-adv-x="557" d="M119 653v258h319v-258h-319zM147 -713l27 1100h211l23 -1100h-261z" />
<glyph unicode="&#xa2;" horiz-adv-x="1503" d="M147 573q0 117 38.5 222.5t110.5 189t186 136.5t255 61v235h88v-233q107 -6 197 -43t148.5 -92.5t97 -123.5t52 -136.5t5.5 -131.5l-209 -45q21 147 -58 252.5t-233 118.5v-817q60 4 108.5 21.5t78 42t51.5 53t32 56t16 50.5t7 37v14h234q0 -9 -1 -25.5t-11 -63 t-28 -89.5t-57.5 -96t-93 -92t-141 -68t-195.5 -33v-252h-88v252q-265 14 -427.5 172t-162.5 428zM408 580q0 -186 84.5 -292.5t244.5 -119.5v815q-153 -18 -241 -129t-88 -274z" />
<glyph unicode="&#xa3;" horiz-adv-x="1542" d="M0 225q0 114 69.5 183t196.5 69q95 0 160.5 -28.5t132.5 -81.5q6 27 6 57q0 117 -78 219h-362v88h274q-19 16 -57.5 47.5t-60 50.5t-53.5 50.5t-50.5 59t-37.5 63.5t-27.5 78t-8.5 89q0 60 23 120.5t75.5 119.5t129 104t193.5 73t259 28q82 0 157.5 -13t134.5 -35.5 t111.5 -51.5t91 -60.5t71 -63.5t53.5 -61t35.5 -51.5t21.5 -35.5l6 -13l-188 -105q-2 6 -6.5 16.5t-23.5 41t-42.5 58t-66 61.5t-92.5 58.5t-123.5 41t-157.5 16.5q-187 0 -287 -64t-100 -163q0 -47 21.5 -90.5t58 -83t76.5 -78.5t86 -94t77 -113h381v-88h-342 q39 -119 39 -240q0 -78 -43 -172q110 -65 258 -65q75 0 135.5 27.5t99.5 72t65 104t37 119.5t11 123h248q0 -101 -20 -193.5t-64 -174.5t-108.5 -142.5t-159 -95.5t-209.5 -35q-113 0 -199.5 39.5t-167.5 110.5q-133 -150 -346 -150q-150 0 -231.5 65.5t-81.5 188.5z M158 231q0 -54 39 -89.5t104 -35.5q63 0 119.5 39t93.5 101q-63 52 -118 80t-115 28q-61 0 -92 -34.5t-31 -88.5z" />
<glyph unicode="&#xa6;" d="M399 -457v1073h88v-1073h-88zM399 999v1074h88v-1074h-88z" />
<glyph unicode="&#xa7;" horiz-adv-x="1325" d="M186 559q0 58 25 107t65.5 81t83.5 56t87 37t67 19t33 7q-17 3 -44 13t-76 40t-88 70.5t-69 113t-30 159.5q0 75 36.5 146t100 126t158 88t202.5 33q75 0 141.5 -15t113 -39t85.5 -53.5t63 -58.5t40.5 -53t23.5 -39l6 -15l-159 -137q-4 9 -12.5 23t-39.5 50.5t-66.5 64 t-95 50.5t-124.5 23q-117 0 -181.5 -66.5t-64.5 -158.5q0 -274 391 -313q115 -10 197.5 -41t126 -75.5t63 -92.5t19.5 -103q0 -50 -18.5 -95.5t-48 -77.5t-66 -59t-72 -44t-67 -29t-50 -17t-22.5 -5q15 -4 40 -16t69 -43.5t79.5 -72.5t62.5 -109t27 -147q0 -69 -35 -135 t-97 -118t-154.5 -83.5t-198.5 -31.5q-81 0 -153 15t-123 39.5t-93.5 54t-69 59t-45.5 54t-27 39.5l-7 15l163 133q4 -9 13 -23t41.5 -50.5t70.5 -64t103 -50.5t137 -23q119 0 183.5 66.5t64.5 165.5q0 101 -76.5 179.5t-235.5 94.5q-247 26 -360 114.5t-113 217.5zM408 590 q0 -61 68.5 -103.5t236.5 -42.5q169 0 240 42t71 104q0 50 -77.5 89.5t-235.5 39.5q-154 0 -228.5 -39.5t-74.5 -89.5z" />
<glyph unicode="&#xa8;" horiz-adv-x="733" d="M31 1352v217h237v-217h-237zM467 1352v217h238v-217h-238z" />
<glyph unicode="&#xa9;" horiz-adv-x="1587" d="M51 563q0 202 100 373.5t272 272t374 100.5t374 -100.5t271.5 -272t99.5 -373.5q0 -152 -59 -290t-158.5 -238.5t-237.5 -159.5t-290 -59t-290 59t-238 159.5t-159 238.5t-59 290zM141 563q0 -183 85.5 -333.5t236 -237t334.5 -86.5q136 0 258 51t209.5 138t138.5 209 t51 259q0 183 -87 334t-237.5 236.5t-332.5 85.5q-138 0 -259.5 -50.5t-208.5 -137.5t-137.5 -208.5t-50.5 -259.5zM262 559q0 98 34 186t97 155.5t162 107t221 39.5q63 0 120 -9.5t99.5 -25.5t79 -36.5t62 -43t46 -45.5t33 -43.5t21 -36.5t11.5 -25l3 -10l-188 -123 q-1 5 -3 14t-12 34.5t-22.5 48.5t-36 51.5t-52 49t-71.5 34.5t-92 14q-116 0 -194 -84t-78 -248q0 -178 81 -268t216 -90q57 0 104.5 18t77.5 47.5t52.5 64.5t34 70t18.5 64.5t8 47.5l2 18h213q0 -65 -16 -129t-54.5 -127.5t-96 -111.5t-147.5 -78t-202 -30 q-237 0 -384 137.5t-147 362.5z" />
<glyph unicode="&#xab;" horiz-adv-x="1239" d="M59 567l648 502v-186l-406 -316l397 -301v-188zM555 567l649 502v-186l-405 -316l395 -301v-188z" />
<glyph unicode="&#xad;" horiz-adv-x="956" d="M29 524v88h897v-88h-897z" />
<glyph unicode="&#xae;" horiz-adv-x="1587" d="M51 563q0 202 100 373.5t272 272t374 100.5t374 -100.5t271.5 -272t99.5 -373.5q0 -152 -59 -290t-158.5 -238.5t-237.5 -159.5t-290 -59t-290 59t-238 159.5t-159 238.5t-59 290zM141 563q0 -183 85.5 -333.5t236 -237t334.5 -86.5q136 0 258 51t209.5 138t138.5 209 t51 259q0 183 -87 334t-237.5 236.5t-332.5 85.5q-138 0 -259.5 -50.5t-208.5 -137.5t-137.5 -208.5t-50.5 -259.5zM383 98v914h494q167 0 254.5 -77.5t87.5 -203.5q0 -63 -23 -111.5t-57 -77t-78.5 -46.5t-83.5 -24.5t-76 -6.5l309 -367h-239l-279 346h-94v-346h-215z M602 612h256q61 0 98 35t37 92q0 53 -37 87t-96 34h-258v-248z" />
<glyph unicode="&#xb0;" horiz-adv-x="2465" d="M924 1470q0 134 84.5 220t216.5 86q133 0 219 -86t86 -220q0 -132 -85.5 -216.5t-219.5 -84.5q-132 0 -216.5 84.5t-84.5 216.5zM1004 1470q0 -100 60.5 -160.5t160.5 -60.5q99 0 161 62t62 159q0 99 -62 161.5t-161 62.5t-160 -62.5t-61 -161.5z" />
<glyph unicode="&#xb4;" horiz-adv-x="2465" d="M899 1378l612 236l62 -225l-641 -119z" />
<glyph unicode="&#xb6;" horiz-adv-x="1421" d="M88 1137q0 98 29.5 175.5t80.5 129t124 85.5t156.5 49t180.5 15h584v-2048h-201v1854h-178v-1854h-205l5 1149q-123 0 -227 28t-182.5 82t-122.5 140t-44 195z" />
<glyph unicode="&#xb7;" horiz-adv-x="1116" d="M147 573q0 171 120.5 291.5t289.5 120.5q171 0 291.5 -120.5t120.5 -291.5q0 -167 -121 -287t-291 -120q-169 0 -289.5 120t-120.5 287z" />
<glyph unicode="&#xb8;" horiz-adv-x="2465" d="M1010 -274l467 208l53 -94l-412 -297z" />
<glyph unicode="&#xbb;" horiz-adv-x="1239" d="M37 883v186l647 -502l-639 -489v188l397 301zM532 883v186l650 -502l-641 -489v188l397 301z" />
<glyph unicode="&#xbf;" horiz-adv-x="1703" d="M170 -164l203 51q2 -9 5.5 -24.5t20.5 -60t40 -85t66.5 -89.5t96.5 -84.5t133 -60t174 -24.5q164 0 262.5 86.5t98.5 208.5q0 83 -32.5 139.5t-84 86.5t-114 52t-125 45.5t-114 56.5t-84 96.5t-32.5 154.5h254q0 -50 20.5 -89.5t55 -66t80 -48.5t95 -43t99 -44t95 -56 t80 -75t55 -105.5t20.5 -142.5q0 -65 -21 -127.5t-68.5 -122t-116.5 -104t-172.5 -71.5t-229.5 -27q-136 0 -251 31.5t-190.5 82t-135.5 112t-93 122.5t-55 111.5t-29 81.5zM651 653v258h320v-258h-320z" />
<glyph unicode="&#xc0;" horiz-adv-x="1912" d="M0 0l737 1591h439l737 -1591h-262l-236 524v-6h-923l-228 -518h-264zM571 713h764l-313 690q-65 -12 -133 0zM631 1804l47 244l631 -178l-29 -144z" />
<glyph unicode="&#xc1;" horiz-adv-x="1912" d="M0 0l737 1591h439l737 -1591h-262l-236 524v-6h-923l-228 -518h-264zM571 713h764l-313 690q-65 -12 -133 0zM610 1870l631 178l47 -244l-649 -78z" />
<glyph unicode="&#xc2;" horiz-adv-x="1912" d="M0 0l737 1591h439l737 -1591h-262l-236 524v-6h-923l-228 -518h-264zM522 1870l420 201l420 -201l-55 -144l-365 144l-364 -144zM571 713h764l-313 690q-65 -12 -133 0z" />
<glyph unicode="&#xc3;" horiz-adv-x="1912" d="M0 0l737 1591h439l737 -1591h-262l-236 524v-6h-923l-228 -518h-264zM522 1892q4 6 10.5 16.5t30.5 37.5t51.5 47.5t71.5 37.5t92 17q46 0 91.5 -19t77 -41.5t78.5 -41.5t95 -19q40 0 75 12.5t56.5 30.5t37 35.5t21.5 30.5l7 12l76 -143q-4 -6 -10.5 -16.5t-31 -37.5 t-51.5 -47.5t-71 -37.5t-90 -17q-53 0 -100.5 19t-78 41.5t-75 41.5t-92.5 19q-39 0 -73.5 -12.5t-55.5 -30t-37 -35.5t-23 -30l-6 -13zM571 713h764l-313 690q-65 -12 -133 0z" />
<glyph unicode="&#xc4;" horiz-adv-x="1912" d="M0 0l737 1591h439l737 -1591h-262l-236 524v-6h-923l-228 -518h-264zM571 713h764l-313 690q-65 -12 -133 0zM580 1808v238h258v-238h-258zM1077 1808v238h258v-238h-258z" />
<glyph unicode="&#xc5;" horiz-adv-x="1912" d="M0 0l737 1591h439l737 -1591h-262l-236 524v-6h-923l-228 -518h-264zM571 713h764l-313 690q-65 -12 -133 0zM719 1927q0 99 67.5 168.5t165.5 69.5q104 0 171 -67t67 -171q0 -97 -70 -165t-168 -68t-165.5 68t-67.5 165zM862 1929q0 -40 26 -66t66 -26q39 0 66 27.5 t27 64.5q0 39 -26.5 65.5t-66.5 26.5q-39 0 -65.5 -26.5t-26.5 -65.5z" />
<glyph unicode="&#xc6;" horiz-adv-x="2791" d="M0 0l737 1591h1788v-194h-1063v-508h944v-197h-944v-497h1123v-195h-1383v696h-459v189h459v512q-245 -6 -313 6l-625 -1403h-264z" />
<glyph unicode="&#xc7;" horiz-adv-x="1914" d="M88 793q0 237 112 424t313.5 292t457.5 105q147 0 275.5 -40.5t217.5 -107t153.5 -150.5t95 -172t30.5 -171l-209 -53q0 91 -36 177.5t-103.5 159t-177.5 116.5t-246 44q-281 0 -442.5 -170.5t-161.5 -453.5t161.5 -455t442.5 -172q112 0 204.5 24.5t150.5 64t101.5 87 t65 95t34 87t15.5 64.5l2 24h250q0 -8 -1.5 -22.5t-10 -58t-22.5 -86t-44 -100.5t-70 -107.5t-103.5 -100t-141.5 -86t-188.5 -58t-239.5 -22.5q-202 0 -369 61t-280 170t-174.5 260.5t-61.5 330.5zM735 -274l467 208l53 -94l-411 -297z" />
<glyph unicode="&#xc8;" horiz-adv-x="1736" d="M207 0v1591h1323v-194h-1063v-508h944v-197h-944v-497h1122v-195h-1382zM571 1804l47 244l631 -178l-28 -144z" />
<glyph unicode="&#xc9;" horiz-adv-x="1736" d="M207 0v1591h1323v-194h-1063v-508h944v-197h-944v-497h1122v-195h-1382zM551 1870l631 178l47 -244l-649 -78z" />
<glyph unicode="&#xca;" horiz-adv-x="1736" d="M207 0v1591h1323v-194h-1063v-508h944v-197h-944v-497h1122v-195h-1382zM463 1870l420 201l420 -201l-56 -144l-364 144l-365 -144z" />
<glyph unicode="&#xcb;" horiz-adv-x="1736" d="M207 0v1591h1323v-194h-1063v-508h944v-197h-944v-497h1122v-195h-1382zM520 1808v238h258v-238h-258zM1018 1808v238h258v-238h-258z" />
<glyph unicode="&#xcc;" horiz-adv-x="673" d="M12 1804l47 244l631 -178l-28 -144zM207 0v1591h260v-1591h-260z" />
<glyph unicode="&#xcd;" horiz-adv-x="673" d="M-8 1870l631 178l47 -244l-650 -78zM207 0v1591h260v-1591h-260z" />
<glyph unicode="&#xce;" horiz-adv-x="673" d="M-96 1870l420 201l419 -201l-55 -144l-364 144l-365 -144zM207 0v1591h260v-1591h-260z" />
<glyph unicode="&#xcf;" horiz-adv-x="673" d="M-39 1808v238h258v-238h-258zM207 0v1591h260v-1591h-260zM459 1808v238h258v-238h-258z" />
<glyph unicode="&#xd1;" horiz-adv-x="2013" d="M207 0v1591h264l1073 -1411v1411h262v-1591h-424l-925 1231l10 -1231h-260zM592 1892q4 6 10.5 16.5t30.5 37.5t51.5 47.5t71.5 37.5t92 17q46 0 91.5 -19t77 -41.5t78.5 -41.5t95 -19q40 0 75 12.5t56 30.5t36.5 35.5t22.5 30.5l6 12l76 -143q-4 -6 -10.5 -16.5 t-31 -37.5t-51.5 -47.5t-71 -37.5t-90 -17q-53 0 -100.5 19t-78 41.5t-75 41.5t-92.5 19q-39 0 -73.5 -12.5t-55.5 -30t-36.5 -35.5t-22.5 -30l-6 -13z" />
<glyph unicode="&#xd2;" horiz-adv-x="2095" d="M266 793q0 178 66.5 330t186 260.5t294 169.5t383.5 61t383 -61t293.5 -169.5t185.5 -260.5t66 -330t-66 -330t-185.5 -260.5t-293.5 -170t-383 -61.5t-383.5 61.5t-294 170t-186 260.5t-66.5 330zM547 793q0 -189 72 -328.5t219.5 -219t357.5 -79.5q310 0 478.5 170.5 t168.5 456.5q0 188 -72 327.5t-219 218t-356 78.5q-314 0 -481.5 -168.5t-167.5 -455.5zM870 1804l48 244l630 -178l-28 -144z" />
<glyph unicode="&#xd3;" horiz-adv-x="2095" d="M266 793q0 178 66.5 330t186 260.5t294 169.5t383.5 61t383 -61t293.5 -169.5t185.5 -260.5t66 -330t-66 -330t-185.5 -260.5t-293.5 -170t-383 -61.5t-383.5 61.5t-294 170t-186 260.5t-66.5 330zM547 793q0 -189 72 -328.5t219.5 -219t357.5 -79.5q310 0 478.5 170.5 t168.5 456.5q0 188 -72 327.5t-219 218t-356 78.5q-314 0 -481.5 -168.5t-167.5 -455.5zM819 1870l631 178l47 -244l-649 -78z" />
<glyph unicode="&#xd4;" horiz-adv-x="2095" d="M266 793q0 178 66.5 330t186 260.5t294 169.5t383.5 61t383 -61t293.5 -169.5t185.5 -260.5t66 -330t-66 -330t-185.5 -260.5t-293.5 -170t-383 -61.5t-383.5 61.5t-294 170t-186 260.5t-66.5 330zM547 793q0 -189 72 -328.5t219.5 -219t357.5 -79.5q310 0 478.5 170.5 t168.5 456.5q0 188 -72 327.5t-219 218t-356 78.5q-314 0 -481.5 -168.5t-167.5 -455.5zM762 1870l420 201l420 -201l-56 -144l-364 144l-365 -144z" />
<glyph unicode="&#xd6;" horiz-adv-x="2095" d="M266 793q0 178 66.5 330t186 260.5t294 169.5t383.5 61t383 -61t293.5 -169.5t185.5 -260.5t66 -330t-66 -330t-185.5 -260.5t-293.5 -170t-383 -61.5t-383.5 61.5t-294 170t-186 260.5t-66.5 330zM547 793q0 -189 72 -328.5t219.5 -219t357.5 -79.5q310 0 478.5 170.5 t168.5 456.5q0 188 -72 327.5t-219 218t-356 78.5q-314 0 -481.5 -168.5t-167.5 -455.5zM821 1808v238h258v-238h-258zM1319 1808v238h258v-238h-258z" />
<glyph unicode="&#xd7;" horiz-adv-x="1456" d="M287 188l379 379l-369 371l61 61l369 -368l379 379l63 -64l-378 -379l368 -368l-61 -64l-371 371l-377 -379z" />
<glyph unicode="&#xd8;" horiz-adv-x="2095" d="M266 793q0 178 66.5 330t186 260.5t294 169.5t383.5 61q4 0 121 -6l115 432l86 -21l-113 -424q220 -37 383 -147t250.5 -279t87.5 -376q0 -178 -66.5 -330t-186 -260.5t-294 -170t-383.5 -61.5q-97 0 -223 21l-109 -416l-86 21l111 411q-291 75 -457 285t-166 500z M547 793q0 -220 100 -375t291 -217l326 1214q-10 0 -33 1t-35 1q-157 0 -280.5 -45t-204 -127.5t-122.5 -197t-42 -254.5zM1026 180q59 -14 170 -14q310 0 478.5 170.5t168.5 456.5q0 247 -126 408t-365 202z" />
<glyph unicode="&#xd9;" horiz-adv-x="2000" d="M207 657v934h260v-934q0 -181 48.5 -285.5t164.5 -155t319 -50.5q202 0 318.5 50.5t166.5 155.5t50 285v934h260v-934q0 -141 -24.5 -248t-81 -191.5t-148.5 -137.5t-226.5 -81t-314.5 -28q-224 0 -377.5 41.5t-244.5 130t-130.5 212.5t-39.5 302zM674 1804l47 244 l631 -178l-29 -144z" />
<glyph unicode="&#xda;" horiz-adv-x="2000" d="M207 657v934h260v-934q0 -181 48.5 -285.5t164.5 -155t319 -50.5q202 0 318.5 50.5t166.5 155.5t50 285v934h260v-934q0 -141 -24.5 -248t-81 -191.5t-148.5 -137.5t-226.5 -81t-314.5 -28q-224 0 -377.5 41.5t-244.5 130t-130.5 212.5t-39.5 302zM653 1870l631 178 l47 -244l-649 -78z" />
<glyph unicode="&#xdb;" horiz-adv-x="2000" d="M207 657v934h260v-934q0 -181 48.5 -285.5t164.5 -155t319 -50.5q202 0 318.5 50.5t166.5 155.5t50 285v934h260v-934q0 -141 -24.5 -248t-81 -191.5t-148.5 -137.5t-226.5 -81t-314.5 -28q-224 0 -377.5 41.5t-244.5 130t-130.5 212.5t-39.5 302zM565 1870l420 201 l420 -201l-55 -144l-365 144l-364 -144z" />
<glyph unicode="&#xdc;" horiz-adv-x="2000" d="M207 657v934h260v-934q0 -181 48.5 -285.5t164.5 -155t319 -50.5q202 0 318.5 50.5t166.5 155.5t50 285v934h260v-934q0 -141 -24.5 -248t-81 -191.5t-148.5 -137.5t-226.5 -81t-314.5 -28q-224 0 -377.5 41.5t-244.5 130t-130.5 212.5t-39.5 302zM623 1808v238h258v-238 h-258zM1120 1808v238h258v-238h-258z" />
<glyph unicode="&#xdd;" horiz-adv-x="1794" d="M29 1591h311l557 -751l557 751h309l-737 -911v-680h-260v680zM551 1870l631 178l47 -244l-649 -78z" />
<glyph unicode="&#xdf;" horiz-adv-x="1548" d="M82 983v154h246q0 50 5 96t18.5 94.5t34 89.5t53.5 78t75 63t100.5 41t128.5 15q175 0 288.5 -92.5t113.5 -257.5q0 -63 -26 -123t-63 -101t-74 -73t-63 -47l-26 -15q7 -1 19 -2.5t48.5 -9t72 -18.5t84 -32t90 -47.5t84 -68t72 -90t48.5 -116t19 -144.5 q0 -185 -124 -295.5t-333 -110.5q-62 0 -118.5 11t-93 26.5t-64 31.5t-39.5 27l-13 11v168q3 -3 9.5 -8.5t29.5 -19.5t49 -24.5t69.5 -19t90.5 -8.5q128 0 200 68t72 174q0 93 -42 165.5t-114 116t-161 66t-189 22.5v148q5 2 13.5 5.5t33.5 16.5t47.5 28t49.5 40.5t47 54 t33.5 69t13.5 83.5q0 98 -51 146t-129 48q-87 0 -133.5 -73t-46.5 -207v-1137h-246v983h-209z" />
<glyph unicode="&#xe0;" horiz-adv-x="1411" d="M102 221q0 -110 66 -180t188 -70q78 0 149 26t122 67t95 90.5t72.5 99.5t48.5 91t29 67l9 26l8 -243q3 -76 44 -128.5t98 -74t124 -21.5q48 0 88.5 12.5t64.5 30.5t41.5 36.5t24.5 31.5l6 12l-53 160q-3 -4 -7.5 -9.5t-20.5 -21t-32 -27t-40 -21t-47 -9.5 q-57 0 -80.5 25.5t-20.5 80.5l13 519q2 82 -26.5 151.5t-86 124.5t-152.5 86t-219 31q-77 0 -145.5 -14.5t-117.5 -38t-90.5 -52t-67.5 -57t-44.5 -52t-26.5 -38.5l-7 -14l167 -113q4 7 11.5 19.5t37 43.5t65 54.5t96.5 43t130 19.5q119 0 178.5 -48t61.5 -112l4 -59 q-175 -20 -312 -65.5t-219 -101.5t-135 -124.5t-72.5 -130t-19.5 -123.5zM295 1389l61 225l613 -236l-33 -108zM342 285q0 35 10 70.5t43.5 83.5t88 91t153 88t229.5 78l6 -110q2 -34 -37 -103t-97.5 -140t-138 -124t-148.5 -53q-52 0 -80.5 30.5t-28.5 88.5z" />
<glyph unicode="&#xe1;" horiz-adv-x="1411" d="M102 221q0 -110 66 -180t188 -70q78 0 149 26t122 67t95 90.5t72.5 99.5t48.5 91t29 67l9 26l8 -243q3 -76 44 -128.5t98 -74t124 -21.5q48 0 88.5 12.5t64.5 30.5t41.5 36.5t24.5 31.5l6 12l-53 160q-3 -4 -7.5 -9.5t-20.5 -21t-32 -27t-40 -21t-47 -9.5 q-57 0 -80.5 25.5t-20.5 80.5l13 519q2 82 -26.5 151.5t-86 124.5t-152.5 86t-219 31q-77 0 -145.5 -14.5t-117.5 -38t-90.5 -52t-67.5 -57t-44.5 -52t-26.5 -38.5l-7 -14l167 -113q4 7 11.5 19.5t37 43.5t65 54.5t96.5 43t130 19.5q119 0 178.5 -48t61.5 -112l4 -59 q-175 -20 -312 -65.5t-219 -101.5t-135 -124.5t-72.5 -130t-19.5 -123.5zM295 1378l612 236l62 -225l-641 -119zM342 285q0 35 10 70.5t43.5 83.5t88 91t153 88t229.5 78l6 -110q2 -34 -37 -103t-97.5 -140t-138 -124t-148.5 -53q-52 0 -80.5 30.5t-28.5 88.5z" />
<glyph unicode="&#xe2;" horiz-adv-x="1411" d="M102 221q0 -110 66 -180t188 -70q78 0 149 26t122 67t95 90.5t72.5 99.5t48.5 91t29 67l9 26l8 -243q3 -76 44 -128.5t98 -74t124 -21.5q48 0 88.5 12.5t64.5 30.5t41.5 36.5t24.5 31.5l6 12l-53 160q-3 -4 -7.5 -9.5t-20.5 -21t-32 -27t-40 -21t-47 -9.5 q-57 0 -80.5 25.5t-20.5 80.5l13 519q2 82 -26.5 151.5t-86 124.5t-152.5 86t-219 31q-77 0 -145.5 -14.5t-117.5 -38t-90.5 -52t-67.5 -57t-44.5 -52t-26.5 -38.5l-7 -14l167 -113q4 7 11.5 19.5t37 43.5t65 54.5t96.5 43t130 19.5q119 0 178.5 -48t61.5 -112l4 -59 q-175 -20 -312 -65.5t-219 -101.5t-135 -124.5t-72.5 -130t-19.5 -123.5zM213 1372l399 242l400 -242l-35 -102l-365 123l-364 -123zM342 285q0 35 10 70.5t43.5 83.5t88 91t153 88t229.5 78l6 -110q2 -34 -37 -103t-97.5 -140t-138 -124t-148.5 -53q-52 0 -80.5 30.5 t-28.5 88.5z" />
<glyph unicode="&#xe3;" horiz-adv-x="1411" d="M102 221q0 -110 66 -180t188 -70q78 0 149 26t122 67t95 90.5t72.5 99.5t48.5 91t29 67l9 26l8 -243q3 -76 44 -128.5t98 -74t124 -21.5q48 0 88.5 12.5t64.5 30.5t41.5 36.5t24.5 31.5l6 12l-53 160q-3 -4 -7.5 -9.5t-20.5 -21t-32 -27t-40 -21t-47 -9.5 q-57 0 -80.5 25.5t-20.5 80.5l13 519q2 82 -26.5 151.5t-86 124.5t-152.5 86t-219 31q-77 0 -145.5 -14.5t-117.5 -38t-90.5 -52t-67.5 -57t-44.5 -52t-26.5 -38.5l-7 -14l167 -113q4 7 11.5 19.5t37 43.5t65 54.5t96.5 43t130 19.5q119 0 178.5 -48t61.5 -112l4 -59 q-175 -20 -312 -65.5t-219 -101.5t-135 -124.5t-72.5 -130t-19.5 -123.5zM233 1415q3 6 8.5 16.5t26.5 37.5t46 47.5t67 37.5t90 17q46 0 88 -17.5t69.5 -39t71 -39t91.5 -17.5q40 0 75 10.5t56 25t36.5 29.5t21.5 25l7 11l37 -109q-2 -6 -7 -16t-24 -36t-42 -46t-63.5 -36 t-86.5 -16q-53 0 -99.5 15t-75.5 33.5t-72 33.5t-91 15q-39 0 -73.5 -9.5t-55.5 -22.5t-37 -26t-23 -23l-6 -9zM342 285q0 35 10 70.5t43.5 83.5t88 91t153 88t229.5 78l6 -110q2 -34 -37 -103t-97.5 -140t-138 -124t-148.5 -53q-52 0 -80.5 30.5t-28.5 88.5z" />
<glyph unicode="&#xe4;" horiz-adv-x="1411" d="M102 221q0 -110 66 -180t188 -70q78 0 149 26t122 67t95 90.5t72.5 99.5t48.5 91t29 67l9 26l8 -243q3 -76 44 -128.5t98 -74t124 -21.5q48 0 88.5 12.5t64.5 30.5t41.5 36.5t24.5 31.5l6 12l-53 160q-3 -4 -7.5 -9.5t-20.5 -21t-32 -27t-40 -21t-47 -9.5 q-57 0 -80.5 25.5t-20.5 80.5l13 519q2 82 -26.5 151.5t-86 124.5t-152.5 86t-219 31q-77 0 -145.5 -14.5t-117.5 -38t-90.5 -52t-67.5 -57t-44.5 -52t-26.5 -38.5l-7 -14l167 -113q4 7 11.5 19.5t37 43.5t65 54.5t96.5 43t130 19.5q119 0 178.5 -48t61.5 -112l4 -59 q-175 -20 -312 -65.5t-219 -101.5t-135 -124.5t-72.5 -130t-19.5 -123.5zM291 1352v217h237v-217h-237zM342 285q0 35 10 70.5t43.5 83.5t88 91t153 88t229.5 78l6 -110q2 -34 -37 -103t-97.5 -140t-138 -124t-148.5 -53q-52 0 -80.5 30.5t-28.5 88.5zM727 1352v217h238 v-217h-238z" />
<glyph unicode="&#xe5;" horiz-adv-x="1411" d="M102 221q0 -110 66 -180t188 -70q78 0 149 26t122 67t95 90.5t72.5 99.5t48.5 91t29 67l9 26l8 -243q3 -76 44 -128.5t98 -74t124 -21.5q48 0 88.5 12.5t64.5 30.5t41.5 36.5t24.5 31.5l6 12l-53 160q-3 -4 -7.5 -9.5t-20.5 -21t-32 -27t-40 -21t-47 -9.5 q-57 0 -80.5 25.5t-20.5 80.5l13 519q2 82 -26.5 151.5t-86 124.5t-152.5 86t-219 31q-77 0 -145.5 -14.5t-117.5 -38t-90.5 -52t-67.5 -57t-44.5 -52t-26.5 -38.5l-7 -14l167 -113q4 7 11.5 19.5t37 43.5t65 54.5t96.5 43t130 19.5q119 0 178.5 -48t61.5 -112l4 -59 q-175 -20 -312 -65.5t-219 -101.5t-135 -124.5t-72.5 -130t-19.5 -123.5zM342 285q0 35 10 70.5t43.5 83.5t88 91t153 88t229.5 78l6 -110q2 -34 -37 -103t-97.5 -140t-138 -124t-148.5 -53q-52 0 -80.5 30.5t-28.5 88.5zM397 1470q0 93 66 160.5t158 67.5q97 0 162 -65 t65 -163q0 -91 -67.5 -157t-159.5 -66q-91 0 -157.5 66t-66.5 157zM522 1473q0 -43 29 -72t72 -29q42 0 71 30t29 71q0 39 -29 69.5t-71 30.5q-43 0 -72 -28.5t-29 -71.5z" />
<glyph unicode="&#xe6;" horiz-adv-x="2260" d="M125 221q0 61 23.5 121.5t82.5 123.5t147 111t229.5 78.5t316.5 30.5l-4 139q-2 64 -61.5 112t-178.5 48q-69 0 -129.5 -18.5t-97 -45t-64 -53t-38.5 -44.5l-11 -19l-168 113q3 6 8 15.5t25.5 37t45 52.5t67 56t91 53t117.5 37t146 15q172 0 283.5 -73t136.5 -226 q21 75 73.5 135t120 94.5t138 52t137.5 17.5q137 0 246.5 -43t177 -115t102.5 -160.5t35 -185.5q0 -27 -2 -62t-4 -56l-2 -21h-955q0 -178 118 -276.5t306 -98.5q64 0 116.5 15t85.5 39.5t57.5 53.5t37 58t19.5 53.5t9 39.5l1 15h233q0 -10 -2 -27t-15 -65.5t-34 -93 t-67 -98.5t-107 -93t-159.5 -65.5t-219.5 -26.5q-129 0 -238 40.5t-180 107.5t-110 153t-39 179q0 -1 -9.5 -18.5t-21 -39.5t-32 -54.5t-43.5 -65t-54.5 -69.5t-65.5 -70t-76 -63t-86 -52t-97 -35t-107 -13q-122 0 -188 70t-66 180zM365 264q0 -46 27.5 -72t74.5 -26 q70 0 156.5 43t154.5 101t114 117.5t44 92.5l-6 25q-131 0 -234.5 -20.5t-163.5 -51t-99.5 -70t-53.5 -73.5t-14 -66zM1171 680h738q0 6 -1 17t-8 43t-19 60.5t-38 64t-61.5 60.5t-92.5 42.5t-128 17.5q-136 0 -246 -79.5t-144 -225.5z" />
<glyph unicode="&#xe7;" horiz-adv-x="1503" d="M147 573q0 98 25.5 188t78.5 167t128 134t179.5 89.5t227.5 32.5q115 0 212 -34.5t160 -90t104.5 -125t56.5 -141t6 -136.5l-211 -45q16 101 -17 187t-114.5 139t-196.5 53q-174 0 -276 -116.5t-102 -294.5q0 -202 97.5 -314t280.5 -112q68 0 123 16t88.5 41t58.5 55.5 t36 61t18 55.5t8 41v16h234q0 -10 -1 -27t-12.5 -65.5t-31 -93t-62 -98.5t-100.5 -93t-152 -65.5t-211 -26.5q-138 0 -254 40.5t-201 116t-132.5 189.5t-47.5 256zM483 -274l467 208l54 -94l-412 -297z" />
<glyph unicode="&#xe8;" horiz-adv-x="1443" d="M119 557q0 151 52.5 272.5t141.5 197.5t201 116.5t236 40.5q133 0 241.5 -44t175.5 -116.5t102.5 -161t35.5 -182.5q0 -31 -2.5 -66t-4.5 -54l-2 -19l-929 18q0 -24 2.5 -50.5t12.5 -67.5t25.5 -78t45.5 -76t69 -67t99 -46t133 -18q83 0 147 23.5t96 57t52.5 67.5 t24.5 58l5 23h238q-1 -9 -3.5 -23.5t-17 -57.5t-36 -82.5t-65.5 -87t-100.5 -82t-146 -58t-196.5 -23.5q-151 0 -274 49t-200 132t-118 187t-41 218zM373 659l719 21q0 6 -0.5 17.5t-7.5 43.5t-18.5 61.5t-37 65.5t-59.5 62t-90 43.5t-125 17.5q-85 0 -154.5 -29.5 t-109 -70.5t-67.5 -91t-38 -84t-12 -57zM406 1389l61 225l612 -236l-32 -108z" />
<glyph unicode="&#xe9;" horiz-adv-x="1443" d="M119 557q0 151 52.5 272.5t141.5 197.5t201 116.5t236 40.5q133 0 241.5 -44t175.5 -116.5t102.5 -161t35.5 -182.5q0 -31 -2.5 -66t-4.5 -54l-2 -19l-929 18q0 -24 2.5 -50.5t12.5 -67.5t25.5 -78t45.5 -76t69 -67t99 -46t133 -18q83 0 147 23.5t96 57t52.5 67.5 t24.5 58l5 23h238q-1 -9 -3.5 -23.5t-17 -57.5t-36 -82.5t-65.5 -87t-100.5 -82t-146 -58t-196.5 -23.5q-151 0 -274 49t-200 132t-118 187t-41 218zM373 659l719 21q0 6 -0.5 17.5t-7.5 43.5t-18.5 61.5t-37 65.5t-59.5 62t-90 43.5t-125 17.5q-85 0 -154.5 -29.5 t-109 -70.5t-67.5 -91t-38 -84t-12 -57zM406 1378l612 236l61 -225l-641 -119z" />
<glyph unicode="&#xea;" horiz-adv-x="1443" d="M119 557q0 151 52.5 272.5t141.5 197.5t201 116.5t236 40.5q133 0 241.5 -44t175.5 -116.5t102.5 -161t35.5 -182.5q0 -31 -2.5 -66t-4.5 -54l-2 -19l-929 18q0 -24 2.5 -50.5t12.5 -67.5t25.5 -78t45.5 -76t69 -67t99 -46t133 -18q83 0 147 23.5t96 57t52.5 67.5 t24.5 58l5 23h238q-1 -9 -3.5 -23.5t-17 -57.5t-36 -82.5t-65.5 -87t-100.5 -82t-146 -58t-196.5 -23.5q-151 0 -274 49t-200 132t-118 187t-41 218zM324 1372l399 242l399 -242l-35 -102l-364 123l-365 -123zM373 659l719 21q0 6 -0.5 17.5t-7.5 43.5t-18.5 61.5t-37 65.5 t-59.5 62t-90 43.5t-125 17.5q-85 0 -154.5 -29.5t-109 -70.5t-67.5 -91t-38 -84t-12 -57z" />
<glyph unicode="&#xeb;" horiz-adv-x="1443" d="M119 557q0 151 52.5 272.5t141.5 197.5t201 116.5t236 40.5q133 0 241.5 -44t175.5 -116.5t102.5 -161t35.5 -182.5q0 -31 -2.5 -66t-4.5 -54l-2 -19l-929 18q0 -24 2.5 -50.5t12.5 -67.5t25.5 -78t45.5 -76t69 -67t99 -46t133 -18q83 0 147 23.5t96 57t52.5 67.5 t24.5 58l5 23h238q-1 -9 -3.5 -23.5t-17 -57.5t-36 -82.5t-65.5 -87t-100.5 -82t-146 -58t-196.5 -23.5q-151 0 -274 49t-200 132t-118 187t-41 218zM373 659l719 21q0 6 -0.5 17.5t-7.5 43.5t-18.5 61.5t-37 65.5t-59.5 62t-90 43.5t-125 17.5q-85 0 -154.5 -29.5 t-109 -70.5t-67.5 -91t-38 -84t-12 -57zM401 1352v217h238v-217h-238zM838 1352v217h237v-217h-237z" />
<glyph unicode="&#xec;" horiz-adv-x="659" d="M-4 1389l61 225l613 -236l-33 -108zM207 0v1137h246v-1137h-246z" />
<glyph unicode="&#xed;" horiz-adv-x="659" d="M-4 1378l612 236l62 -225l-641 -119zM207 0v1137h246v-1137h-246z" />
<glyph unicode="&#xee;" horiz-adv-x="659" d="M-86 1372l399 242l400 -242l-35 -102l-365 123l-364 -123zM207 0v1137h246v-1137h-246z" />
<glyph unicode="&#xef;" horiz-adv-x="659" d="M-8 1352v217h237v-217h-237zM207 0v1137h246v-1137h-246zM428 1352v217h238v-217h-238z" />
<glyph unicode="&#xf1;" horiz-adv-x="1581" d="M209 0v1137h117l104 -338q10 35 29.5 76t61 98.5t94.5 102t135.5 76.5t177.5 32q222 0 333 -128t111 -351v-705h-246v700q0 139 -79.5 212t-217.5 73q-77 0 -143 -26t-107 -63.5t-70.5 -80.5t-41.5 -75.5t-12 -49.5v-690h-246zM424 1415q3 6 8.5 16.5t26.5 37.5t46 47.5 t67 37.5t90 17q38 0 72 -11.5t59.5 -28.5t51.5 -33.5t61 -28t75 -11.5t75 10.5t56.5 25t37 29.5t22.5 25l6 11l36 -109q-2 -6 -7 -16t-24 -36t-42 -46t-63.5 -36t-86.5 -16q-53 0 -99.5 15t-75.5 33.5t-72 33.5t-91 15q-39 0 -73.5 -9.5t-55.5 -22.5t-36.5 -26t-21.5 -23 l-7 -9z" />
<glyph unicode="&#xf2;" horiz-adv-x="1536" d="M123 578q0 128 39 236t115.5 191.5t202 131t288.5 47.5t288.5 -47.5t202 -131t115.5 -191.5t39 -236q0 -129 -39 -237t-115.5 -192t-202 -131t-288.5 -47t-288.5 47t-202 131t-115.5 192t-39 237zM385 578q0 -95 21 -170.5t65.5 -134t119.5 -90t177 -31.5 q196 0 289.5 115t93.5 311q0 195 -93 306t-290 111q-200 0 -291.5 -110.5t-91.5 -306.5zM436 1389l62 225l612 -236l-33 -108z" />
<glyph unicode="&#xf3;" horiz-adv-x="1536" d="M123 578q0 128 39 236t115.5 191.5t202 131t288.5 47.5t288.5 -47.5t202 -131t115.5 -191.5t39 -236q0 -129 -39 -237t-115.5 -192t-202 -131t-288.5 -47t-288.5 47t-202 131t-115.5 192t-39 237zM385 578q0 -95 21 -170.5t65.5 -134t119.5 -90t177 -31.5 q196 0 289.5 115t93.5 311q0 195 -93 306t-290 111q-200 0 -291.5 -110.5t-91.5 -306.5zM436 1378l613 236l61 -225l-641 -119z" />
<glyph unicode="&#xf4;" horiz-adv-x="1536" d="M123 578q0 128 39 236t115.5 191.5t202 131t288.5 47.5t288.5 -47.5t202 -131t115.5 -191.5t39 -236q0 -129 -39 -237t-115.5 -192t-202 -131t-288.5 -47t-288.5 47t-202 131t-115.5 192t-39 237zM354 1372l400 242l399 -242l-35 -102l-364 123l-365 -123zM385 578 q0 -95 21 -170.5t65.5 -134t119.5 -90t177 -31.5q196 0 289.5 115t93.5 311q0 195 -93 306t-290 111q-200 0 -291.5 -110.5t-91.5 -306.5z" />
<glyph unicode="&#xf6;" horiz-adv-x="1536" d="M123 578q0 128 39 236t115.5 191.5t202 131t288.5 47.5t288.5 -47.5t202 -131t115.5 -191.5t39 -236q0 -129 -39 -237t-115.5 -192t-202 -131t-288.5 -47t-288.5 47t-202 131t-115.5 192t-39 237zM385 578q0 -95 21 -170.5t65.5 -134t119.5 -90t177 -31.5 q196 0 289.5 115t93.5 311q0 195 -93 306t-290 111q-200 0 -291.5 -110.5t-91.5 -306.5zM432 1352v217h238v-217h-238zM868 1352v217h238v-217h-238z" />
<glyph unicode="&#xf7;" horiz-adv-x="1218" d="M29 524v88h1161v-88h-1161zM539 59v140h141v-140h-141zM539 938v139h141v-139h-141z" />
<glyph unicode="&#xf8;" horiz-adv-x="1609" d="M119 578q0 126 45 235.5t130 192.5t216.5 130.5t294.5 47.5q55 0 104 -6l127 473l86 -21l-125 -467q236 -48 365 -207.5t129 -377.5q0 -127 -45 -237t-130 -192.5t-216.5 -130t-294.5 -47.5q-65 0 -127 9l-107 -404l-86 21l107 397q-227 53 -350 211t-123 373zM381 578 q0 -147 67.5 -250t194.5 -142l213 797q-8 0 -25 1t-26 1q-205 0 -314.5 -109t-109.5 -298zM731 168q23 -2 74 -2q202 0 313 112t111 300q0 151 -73.5 253t-211.5 138z" />
<glyph unicode="&#xf9;" horiz-adv-x="1576" d="M207 385v752h246v-713q0 -125 73.5 -191.5t180.5 -66.5q102 0 186 31.5t132 78.5t73.5 95.5t25.5 89.5v676h246v-1137h-119l-102 340q-24 -50 -47 -89t-67.5 -95t-93 -93.5t-122 -64.5t-155.5 -27q-202 0 -329.5 108t-127.5 306zM455 1389l61 225l612 -236l-32 -108z" />
<glyph unicode="&#xfa;" horiz-adv-x="1576" d="M207 385v752h246v-713q0 -125 73.5 -191.5t180.5 -66.5q102 0 186 31.5t132 78.5t73.5 95.5t25.5 89.5v676h246v-1137h-119l-102 340q-24 -50 -47 -89t-67.5 -95t-93 -93.5t-122 -64.5t-155.5 -27q-202 0 -329.5 108t-127.5 306zM455 1378l612 236l61 -225l-641 -119z " />
<glyph unicode="&#xfb;" horiz-adv-x="1576" d="M207 385v752h246v-713q0 -125 73.5 -191.5t180.5 -66.5q102 0 186 31.5t132 78.5t73.5 95.5t25.5 89.5v676h246v-1137h-119l-102 340q-24 -50 -47 -89t-67.5 -95t-93 -93.5t-122 -64.5t-155.5 -27q-202 0 -329.5 108t-127.5 306zM373 1372l399 242l399 -242l-34 -102 l-365 123l-364 -123z" />
<glyph unicode="&#xfc;" horiz-adv-x="1576" d="M207 385v752h246v-713q0 -125 73.5 -191.5t180.5 -66.5q102 0 186 31.5t132 78.5t73.5 95.5t25.5 89.5v676h246v-1137h-119l-102 340q-24 -50 -47 -89t-67.5 -95t-93 -93.5t-122 -64.5t-155.5 -27q-202 0 -329.5 108t-127.5 306zM451 1352v217h237v-217h-237zM887 1352 v217h237v-217h-237z" />
<glyph unicode="&#xfd;" horiz-adv-x="1341" d="M-12 1137h266l412 -818l411 818h264q-395 -747 -628 -1137q-44 -73 -74.5 -122t-67.5 -103.5t-66.5 -89.5t-64.5 -68.5t-67.5 -52t-70 -30t-77.5 -11.5q-58 0 -105.5 11.5t-65.5 22.5l-19 11v190q3 -7 20.5 -18t56.5 -22t83 -11q74 0 143.5 72t155.5 219l81 141h-30z M338 1378l612 236l62 -225l-641 -119z" />
<glyph unicode="&#xff;" horiz-adv-x="1341" d="M-12 1137h266l412 -818l411 818h264q-395 -747 -628 -1137q-44 -73 -74.5 -122t-67.5 -103.5t-66.5 -89.5t-64.5 -68.5t-67.5 -52t-70 -30t-77.5 -11.5q-58 0 -105.5 11.5t-65.5 22.5l-19 11v190q3 -7 20.5 -18t56.5 -22t83 -11q74 0 143.5 72t155.5 219l81 141h-30z M334 1352v217h237v-217h-237zM770 1352v217h238v-217h-238z" />
<glyph unicode="&#x152;" horiz-adv-x="3024" d="M119 793q0 178 66.5 330t186 260.5t294 169.5t383.5 61q87 0 229 -23h1481v-194h-1051q113 -95 180 -225t82 -283h670v-197h-670q-35 -306 -254 -497h1102v-195h-1501q-132 -29 -268 -29q-209 0 -383.5 61.5t-294 170t-186 260.5t-66.5 330zM399 793q0 -141 42 -255.5 t122 -197.5t204 -128.5t282 -45.5q279 0 445 142t196 384h-1031v197h1031q-27 245 -192 386.5t-449 141.5q-314 0 -482 -168.5t-168 -455.5z" />
<glyph unicode="&#x153;" horiz-adv-x="2103" d="M119 578q0 113 38.5 221t108 194t177.5 138.5t237 52.5q97 0 174 -30t118 -68.5t69 -86t35 -71.5t9 -37q4 13 14 36.5t42.5 71.5t75 86.5t117.5 68.5t163 30q134 0 242 -74t164.5 -188.5t56.5 -241.5q0 -27 -2.5 -62t-5.5 -56l-2 -21h-865v98l662 41q0 6 -1 17t-7 43 t-16.5 60.5t-33 64t-52.5 60.5t-78.5 42.5t-108.5 17.5q-72 0 -135.5 -31t-102.5 -72t-70 -90.5t-42.5 -75.5t-14.5 -38v3q-19 142 -108 225q-86 79 -223 79q-82 0 -148.5 -28.5t-107 -72.5t-68 -100.5t-38.5 -107.5t-11 -98q0 -117 42.5 -209.5t128 -147.5t202.5 -55 q60 0 111 14.5t84 37.5t59 50.5t40 55t23 50.5t11 38l3 14q4 -11 12.5 -28.5t40 -62t69 -79t101.5 -62.5t136 -28q125 0 207 73.5t94 200.5h233q-4 -49 -16.5 -98.5t-35.5 -104t-61.5 -101t-88.5 -84t-123 -59.5t-160 -22q-61 0 -116 15t-95 39t-74 52.5t-56 57.5t-37.5 53 t-22.5 39l-7 15q-2 -6 -5.5 -15.5t-17.5 -37.5t-32.5 -54t-51.5 -57t-72.5 -53.5t-97.5 -38t-124 -15.5q-114 0 -209.5 36t-160 96t-109.5 139t-65.5 164t-20.5 172z" />
<glyph unicode="&#x178;" horiz-adv-x="1794" d="M29 1591h311l557 -751l557 751h309l-737 -911v-680h-260v680zM520 1808v238h258v-238h-258zM1018 1808v238h258v-238h-258z" />
<glyph unicode="&#x2c6;" horiz-adv-x="2465" d="M817 1372l400 242l399 -242l-35 -102l-364 123l-365 -123z" />
<glyph unicode="&#x2dc;" horiz-adv-x="2465" d="M838 1415q3 6 8.5 16.5t26 37.5t45.5 47.5t67 37.5t90 17q46 0 88 -17.5t69.5 -39t71 -39t91.5 -17.5q40 0 75 10.5t56 25t36.5 29.5t21.5 25l7 11l37 -109q-2 -6 -7 -16t-24 -36t-42 -46t-63.5 -36t-86.5 -16q-53 0 -99.5 15t-75.5 33.5t-72 33.5t-91 15 q-39 0 -73.5 -9.5t-55.5 -22.5t-37 -26t-23 -23l-6 -9z" />
<glyph unicode="&#x2000;" horiz-adv-x="1082" />
<glyph unicode="&#x2001;" horiz-adv-x="2165" />
<glyph unicode="&#x2002;" horiz-adv-x="1082" />
<glyph unicode="&#x2003;" horiz-adv-x="2165" />
<glyph unicode="&#x2004;" horiz-adv-x="721" />
<glyph unicode="&#x2005;" horiz-adv-x="541" />
<glyph unicode="&#x2006;" horiz-adv-x="360" />
<glyph unicode="&#x2007;" horiz-adv-x="360" />
<glyph unicode="&#x2008;" horiz-adv-x="270" />
<glyph unicode="&#x2009;" horiz-adv-x="433" />
<glyph unicode="&#x200a;" horiz-adv-x="120" />
<glyph unicode="&#x2010;" horiz-adv-x="956" d="M29 524v88h897v-88h-897z" />
<glyph unicode="&#x2011;" horiz-adv-x="956" d="M29 524v88h897v-88h-897z" />
<glyph unicode="&#x2012;" horiz-adv-x="956" d="M29 524v88h897v-88h-897z" />
<glyph unicode="&#x2013;" horiz-adv-x="2732" d="M326 524v88h2080v-88h-2080z" />
<glyph unicode="&#x2014;" horiz-adv-x="2732" d="M147 524v88h2438v-88h-2438z" />
<glyph unicode="&#x2018;" d="M270 991v260q0 86 23 153t62.5 107t88 60t103.5 20l71 -73q-34 0 -59.5 -4.5t-54.5 -21t-48 -44.5t-31.5 -78t-12.5 -119h178v-260h-320z" />
<glyph unicode="&#x2019;" d="M270 1065q42 0 74 9t64.5 34.5t50.5 82t18 140.5h-178v260h319v-260q0 -85 -23 -152t-62.5 -107t-88.5 -60.5t-104 -20.5z" />
<glyph unicode="&#x201a;" d="M270 -266q33 0 59 4.5t55 21t48 44t32 77.5t13 119h-178v260h319v-260q0 -168 -80.5 -254t-197.5 -86z" />
<glyph unicode="&#x201c;" d="M51 991v260q0 86 23 153t62.5 107t88 60t103.5 20l71 -73q-34 0 -59.5 -4.5t-54.5 -21t-48 -44.5t-31.5 -78t-12.5 -119h178v-260h-320zM487 991v260q0 167 81.5 253.5t197.5 86.5l72 -73q-34 0 -60 -4.5t-55 -21t-48 -44.5t-31.5 -78t-12.5 -119h178v-260h-322z" />
<glyph unicode="&#x201d;" d="M51 1065q42 0 74 9t64.5 34.5t50.5 82t18 140.5h-178v260h319v-260q0 -85 -23 -152t-62.5 -107t-88.5 -60.5t-104 -20.5zM487 1065q43 0 75 9t65 34.5t51 82t18 140.5h-178v260h320v-260q0 -166 -81.5 -253t-197.5 -87z" />
<glyph unicode="&#x201e;" d="M51 -266q33 0 59 4.5t55 21t48 44t32 77.5t13 119h-178v260h319v-260q0 -168 -80.5 -254t-197.5 -86zM487 -266q34 0 60 4.5t55.5 21t48.5 44t32 77.5t13 119h-178v260h320v-260q0 -167 -81.5 -253.5t-197.5 -86.5z" />
<glyph unicode="&#x2022;" horiz-adv-x="1323" d="M61 633l531 -529l-25 5l-499 501zM66 776l2 35l696 -698l-31 -9zM92 905q20 39 21 41l786 -788l-37 -19zM147 1022l27 37l838 -840q-16 -16 -35 -24zM190 326l82 -80l-39 33q-22 17 -43 47zM215 1110l25 20l20 25l852 -854l-22 -20l-21 -23zM301 1186l59 45l824 -823 q-9 -26 -45 -62zM403 1249q9 4 25 12t29.5 13t29.5 8l750 -750q-4 -10 -14.5 -40.5t-18.5 -45.5zM526 1294q59 12 113 9l623 -623q0 -66 -13 -113zM670 1309q85 0 176 -33l391 -387q24 -75 27 -176zM870 1272q120 -42 215 -142q109 -109 146 -219z" />
<glyph unicode="&#x2026;" horiz-adv-x="1609" d="M147 0v258h320v-258h-320zM645 0v242h320v-242h-320zM1143 0v227h319v-227h-319z" />
<glyph unicode="&#x202f;" horiz-adv-x="433" />
<glyph unicode="&#x2039;" horiz-adv-x="765" d="M0 567l647 502v-186l-405 -316l397 -301v-188z" />
<glyph unicode="&#x203a;" horiz-adv-x="765" d="M119 883v186l647 -502l-639 -489v188l397 301z" />
<glyph unicode="&#x205f;" horiz-adv-x="541" />
<glyph unicode="&#x20ac;" horiz-adv-x="1914" d="M0 612v88h152q-5 39 -5 93v26h-147v90h154q40 314 280.5 509.5t595.5 195.5q123 0 233 -28.5t193 -77.5t150 -112.5t109 -135.5t64.5 -145t22.5 -142l-211 -53q0 91 -36 177.5t-103 159t-177 116.5t-245 44q-250 0 -406.5 -137t-189.5 -371h758v-90h-766v-26l6 -93h760 v-88h-748q46 -207 200 -326.5t386 -119.5q88 0 164.5 15.5t130.5 41t98.5 59t72.5 70.5t49.5 74t32 70.5t17 59t7.5 40.5l2 16h249q0 -8 -1.5 -22.5t-10 -58t-22.5 -86t-44 -100.5t-70 -107.5t-103.5 -100t-141.5 -86t-188.5 -58t-239.5 -22.5q-353 0 -582.5 173.5 t-287.5 467.5h-162z" />
<glyph unicode="&#x25fc;" horiz-adv-x="1136" d="M0 0v1137h1137v-1137h-1137z" />
</font>
</defs>
</svg>
